<svg width="64" height="64" viewBox="0 0 64 64" fill="none" xmlns="http://www.w3.org/2000/svg">
<rect width="64" height="64" rx="32" fill="#DFEEFF"/>
<mask id="mask0_233_44" style="mask-type:alpha" maskUnits="userSpaceOnUse" x="14" y="14" width="36" height="36">
<rect x="14.5455" y="14.5455" width="34.9091" height="34.9091" fill="#D9D9D9"/>
</mask>
<g mask="url(#mask0_233_44)">
<path d="M21.8182 45.0909C21.0182 45.0909 20.3333 44.8061 19.7636 44.2364C19.1939 43.6667 18.9091 42.9818 18.9091 42.1818V21.8182C18.9091 21.0182 19.1939 20.3334 19.7636 19.7637C20.3333 19.194 21.0182 18.9091 21.8182 18.9091H42.1818C42.9818 18.9091 43.6667 19.194 44.2364 19.7637C44.8061 20.3334 45.0909 21.0182 45.0909 21.8182V42.1818C45.0909 42.9818 44.8061 43.6667 44.2364 44.2364C43.6667 44.8061 42.9818 45.0909 42.1818 45.0909H21.8182ZM24.7273 39.2728H34.9091V36.3637H24.7273V39.2728ZM24.7273 33.4546H39.2727V30.5455H24.7273V33.4546ZM24.7273 27.6364H39.2727V24.7273H24.7273V27.6364Z" fill="#5789D2"/>
</g>
</svg>
