<svg width="64" height="64" viewBox="0 0 64 64" fill="none" xmlns="http://www.w3.org/2000/svg">
<rect width="64" height="64" rx="32" fill="#DFEEFF"/>
<mask id="mask0_233_45" style="mask-type:alpha" maskUnits="userSpaceOnUse" x="14" y="14" width="36" height="36">
<rect x="14.5454" y="14.5455" width="34.9091" height="34.9091" fill="#D9D9D9"/>
</mask>
<g mask="url(#mask0_233_45)">
<path d="M20.3636 45.091C19.5636 45.091 18.8788 44.8061 18.3091 44.2364C17.7394 43.6667 17.4545 42.9819 17.4545 42.1819V36.3637H27.6363V39.2728H36.3636V36.3637H46.5454V42.1819C46.5454 42.9819 46.2606 43.6667 45.6909 44.2364C45.1212 44.8061 44.4363 45.091 43.6363 45.091H20.3636ZM30.5454 36.3637V33.4546H33.4545V36.3637H30.5454ZM17.4545 33.4546V26.1819C17.4545 25.3819 17.7394 24.697 18.3091 24.1273C18.8788 23.5576 19.5636 23.2728 20.3636 23.2728H26.1818V20.3637C26.1818 19.5637 26.4666 18.8788 27.0363 18.3091C27.606 17.7394 28.2909 17.4546 29.0909 17.4546H34.9091C35.7091 17.4546 36.3939 17.7394 36.9636 18.3091C37.5333 18.8788 37.8182 19.5637 37.8182 20.3637V23.2728H43.6363C44.4363 23.2728 45.1212 23.5576 45.6909 24.1273C46.2606 24.697 46.5454 25.3819 46.5454 26.1819V33.4546H36.3636V30.5455H27.6363V33.4546H17.4545ZM29.0909 23.2728H34.9091V20.3637H29.0909V23.2728Z" fill="#5789D2"/>
</g>
</svg>
